<?xml version="1.0" encoding="UTF-8"?>
<svg id="Layer_2" data-name="Layer 2" xmlns="http://www.w3.org/2000/svg" viewBox="0 0 1039.45 533.88">
  <defs>
    <style>
      .cls-1, .cls-2, .cls-3 {
        stroke-width: 0px;
      }

      .cls-4 {
        font-family: Ovo, Ovo;
        font-size: 79.42px;
      }

      .cls-2 {
        fill: #4b664a;
      }

      .cls-3 {
        fill: #ebe4da;
      }

      .cls-5 {
        font-family: Blanka-Regular, Blanka;
        font-size: 138.15px;
      }
    </style>
  </defs>
  <g id="Layer_1-2" data-name="Layer 1">
    <g>
      <rect class="cls-1" x="1002.71" width="30.93" height="255.03" transform="translate(2036.35 255.03) rotate(180)"/>
      <rect class="cls-3" x="843.29" y="-114.35" width="30.93" height="261.12" transform="translate(874.97 -842.55) rotate(90)"/>
      <rect class="cls-1" x="2.82" y="136.82" width="30.93" height="255.03"/>
      <rect class="cls-2" x="112.05" y="294.52" width="30.93" height="255.03" transform="translate(549.54 294.52) rotate(90)"/>
      <text class="cls-5" transform="translate(218.42 203.66)"><tspan x="0" y="0">C</tspan></text>
      <text class="cls-5" transform="translate(322.15 203.66)"><tspan x="0" y="0">R</tspan></text>
      <text class="cls-5" transform="translate(416.76 203.66)"><tspan x="0" y="0">A</tspan></text>
      <text class="cls-5" transform="translate(523.11 203.66)"><tspan x="0" y="0">F</tspan></text>
      <text class="cls-5" transform="translate(607.64 203.66)"><tspan x="0" y="0">T</tspan></text>
      <path class="cls-1" d="M718,109.03c-3.18,11.6-9.12,26.38-12.99,32.74l-7.74.97c3.04-8.15,6.63-22.52,8.15-32.46l12.57-1.24Z"/>
      <text class="cls-5" transform="translate(750.8 203.66)"><tspan x="0" y="0">D</tspan></text>
      <text class="cls-5" transform="translate(213.54 367.57)"><tspan x="0" y="0">H</tspan></text>
      <text class="cls-5" transform="translate(317.13 367.57)"><tspan x="0" y="0">A</tspan></text>
      <text class="cls-5" transform="translate(423.48 367.57)"><tspan x="0" y="0">B</tspan></text>
      <text class="cls-5" transform="translate(519.05 367.57)"><tspan x="0" y="0">I</tspan></text>
      <text class="cls-5" transform="translate(583.14 367.57)"><tspan x="0" y="0">T</tspan></text>
      <text class="cls-5" transform="translate(668.09 367.57)"><tspan x="0" y="0">A</tspan></text>
      <text class="cls-5" transform="translate(774.43 367.57)"><tspan x="0" y="0">T</tspan></text>
      <g>
        <text class="cls-4" transform="translate(46.76 513.17)"><tspan x="0" y="0">A</tspan></text>
        <text class="cls-4" transform="translate(99.94 513.17)"><tspan x="0" y="0"> </tspan></text>
        <text class="cls-4" transform="translate(135.25 513.17)"><tspan x="0" y="0">R</tspan></text>
        <text class="cls-4" transform="translate(186.19 513.17)"><tspan x="0" y="0"> </tspan></text>
        <text class="cls-4" transform="translate(221.5 513.17)"><tspan x="0" y="0">C</tspan></text>
        <text class="cls-4" transform="translate(276.19 513.17)"><tspan x="0" y="0"> </tspan></text>
        <text class="cls-4" transform="translate(311.5 513.17)"><tspan x="0" y="0">H</tspan></text>
        <text class="cls-4" transform="translate(366.87 513.17)"><tspan x="0" y="0"> </tspan></text>
        <text class="cls-4" transform="translate(402.18 513.17)"><tspan x="0" y="0">I</tspan></text>
        <text class="cls-4" transform="translate(440.56 513.17)"><tspan x="0" y="0"> </tspan></text>
        <text class="cls-4" transform="translate(475.87 513.17)"><tspan x="0" y="0">T</tspan></text>
        <text class="cls-4" transform="translate(525.07 513.17)"><tspan x="0" y="0"> </tspan></text>
        <text class="cls-4" transform="translate(560.37 513.17)"><tspan x="0" y="0">E</tspan></text>
        <text class="cls-4" transform="translate(608.32 513.17)"><tspan x="0" y="0"> </tspan></text>
        <text class="cls-4" transform="translate(643.63 513.17)"><tspan x="0" y="0">C</tspan></text>
        <text class="cls-4" transform="translate(698.32 513.17)"><tspan x="0" y="0"> </tspan></text>
        <text class="cls-4" transform="translate(733.63 513.17)"><tspan x="0" y="0">T</tspan></text>
        <text class="cls-4" transform="translate(782.82 513.17)"><tspan x="0" y="0"> </tspan></text>
        <text class="cls-4" transform="translate(818.13 513.17)"><tspan x="0" y="0">U</tspan></text>
        <text class="cls-4" transform="translate(873.18 513.17)"><tspan x="0" y="0"> </tspan></text>
        <text class="cls-4" transform="translate(908.49 513.17)"><tspan x="0" y="0">R</tspan></text>
        <text class="cls-4" transform="translate(959.44 513.17)"><tspan x="0" y="0"> </tspan></text>
        <text class="cls-4" transform="translate(994.74 513.17)"><tspan x="0" y="0">E</tspan></text>
      </g>
    </g>
  </g>
</svg>