<?xml version="1.0" encoding="UTF-8"?>
<svg id="Layer_2" data-name="Layer 2" xmlns="http://www.w3.org/2000/svg" viewBox="0 0 2489.8 1466.64">
  <defs>
    <style>
      .cls-1 {
        stroke-width: 0px;
      }

      .cls-2 {
        font-family: Ovo, Ovo;
        font-size: 199.02px;
      }

      .cls-3 {
        font-family: Blanka-Regular, Blanka;
        font-size: 499.51px;
      }
    </style>
  </defs>
  <g id="Layer_1-2" data-name="Layer 1">
    <g>
      <g>
        <text class="cls-3" transform="translate(122.4 449.55)"><tspan x="0" y="0">C</tspan></text>
        <text class="cls-3" transform="translate(497.44 449.55)"><tspan x="0" y="0">R</tspan></text>
        <text class="cls-3" transform="translate(839.53 449.55)"><tspan x="0" y="0">A</tspan></text>
        <text class="cls-3" transform="translate(1224.06 449.55)"><tspan x="0" y="0">F</tspan></text>
        <text class="cls-3" transform="translate(1529.69 449.55)"><tspan x="0" y="0">T</tspan></text>
        <path class="cls-1" d="M1928.74,107.4c-11.49,41.96-32.97,95.4-46.95,118.38l-27.97,3.5c10.99-29.47,23.98-81.42,29.47-117.38l45.45-4.49Z"/>
        <text class="cls-3" transform="translate(2047.34 449.55)"><tspan x="0" y="0">D</tspan></text>
        <text class="cls-3" transform="translate(104.75 1042.2)"><tspan x="0" y="0">H</tspan></text>
        <text class="cls-3" transform="translate(479.3 1042.2)"><tspan x="0" y="0">A</tspan></text>
        <text class="cls-3" transform="translate(863.83 1042.2)"><tspan x="0" y="0">B</tspan></text>
        <text class="cls-3" transform="translate(1209.41 1042.2)"><tspan x="0" y="0">I</tspan></text>
        <text class="cls-3" transform="translate(1441.13 1042.2)"><tspan x="0" y="0">T</tspan></text>
        <text class="cls-3" transform="translate(1748.27 1042.2)"><tspan x="0" y="0">A</tspan></text>
        <text class="cls-3" transform="translate(2132.8 1042.2)"><tspan x="0" y="0">T</tspan></text>
      </g>
      <g>
        <text class="cls-2" transform="translate(1.94 1414.75)"><tspan x="0" y="0">A</tspan></text>
        <text class="cls-2" transform="translate(135.22 1414.75)"><tspan x="0" y="0"> </tspan></text>
        <text class="cls-2" transform="translate(223.71 1414.75)"><tspan x="0" y="0">R</tspan></text>
        <text class="cls-2" transform="translate(351.39 1414.75)"><tspan x="0" y="0"> </tspan></text>
        <text class="cls-2" transform="translate(439.88 1414.75)"><tspan x="0" y="0">C</tspan></text>
        <text class="cls-2" transform="translate(576.93 1414.75)"><tspan x="0" y="0"> </tspan></text>
        <text class="cls-2" transform="translate(665.41 1414.75)"><tspan x="0" y="0">H</tspan></text>
        <text class="cls-2" transform="translate(804.2 1414.75)"><tspan x="0" y="0"> </tspan></text>
        <text class="cls-2" transform="translate(892.68 1414.75)"><tspan x="0" y="0">I</tspan></text>
        <text class="cls-2" transform="translate(988.89 1414.75)"><tspan x="0" y="0"> </tspan></text>
        <text class="cls-2" transform="translate(1077.37 1414.75)"><tspan x="0" y="0">T</tspan></text>
        <text class="cls-2" transform="translate(1200.66 1414.75)"><tspan x="0" y="0"> </tspan></text>
        <text class="cls-2" transform="translate(1289.15 1414.75)"><tspan x="0" y="0">E</tspan></text>
        <text class="cls-2" transform="translate(1409.31 1414.75)"><tspan x="0" y="0"> </tspan></text>
        <text class="cls-2" transform="translate(1497.8 1414.75)"><tspan x="0" y="0">C</tspan></text>
        <text class="cls-2" transform="translate(1634.86 1414.75)"><tspan x="0" y="0"> </tspan></text>
        <text class="cls-2" transform="translate(1723.35 1414.75)"><tspan x="0" y="0">T</tspan></text>
        <text class="cls-2" transform="translate(1846.64 1414.75)"><tspan x="0" y="0"> </tspan></text>
        <text class="cls-2" transform="translate(1935.13 1414.75)"><tspan x="0" y="0">U</tspan></text>
        <text class="cls-2" transform="translate(2073.09 1414.75)"><tspan x="0" y="0"> </tspan></text>
        <text class="cls-2" transform="translate(2161.59 1414.75)"><tspan x="0" y="0">R</tspan></text>
        <text class="cls-2" transform="translate(2289.27 1414.75)"><tspan x="0" y="0"> </tspan></text>
        <text class="cls-2" transform="translate(2377.75 1414.75)"><tspan x="0" y="0">E</tspan></text>
      </g>
    </g>
  </g>
</svg>