<?xml version="1.0" encoding="utf-8"?>
<!-- Generator: Adobe Illustrator 27.9.0, SVG Export Plug-In . SVG Version: 6.00 Build 0)  -->
<svg version="1.1" xmlns="http://www.w3.org/2000/svg" xmlns:xlink="http://www.w3.org/1999/xlink" x="0px" y="0px"
	 viewBox="0 0 4609.4 2280" style="enable-background:new 0 0 4609.4 2280;" xml:space="preserve">
<style type="text/css">
	.st0{fill:#404040;}
	.st1{fill:#EBE4DA;}
	.st2{fill:#596153;}
</style>
<g id="Layer_1">
</g>
<g id="logo_outline">
	<g>
		<g>
			
				<rect x="4033.9" y="297" transform="matrix(-1 -1.224647e-16 1.224647e-16 -1 8169.4834 1433.3149)" class="st0" width="101.8" height="839.3"/>
			
				<rect x="3509.2" y="-79.3" transform="matrix(-1.836970e-16 1 -1 -1.836970e-16 3910.48 -3209.7502)" class="st1" width="101.8" height="859.3"/>
		</g>
		<g>
			<rect x="743.3" y="747.3" class="st0" width="101.8" height="839.3"/>
			
				<rect x="1102.8" y="1266.2" transform="matrix(-1.836970e-16 1 -1 -1.836970e-16 2839.5586 532.1815)" class="st2" width="101.8" height="839.3"/>
		</g>
		<g>
			<g>
				<path class="st0" d="M1730.2,900.4v62.7c0,1.8-1.8,4.1-5,4.1h-59.1c-90.5,0-213.2-26.4-213.2-181.8
					c0-161.4,124.1-181.8,213.2-181.8h59.1c3.2,0,5,2.3,5,4.1v142.7h-69.6v-80.5c-79.1-4.1-137.7,29.1-137.7,115.5
					c0,112.3,93.7,116.8,137.7,115H1730.2z"/>
			</g>
			<g>
				<path class="st0" d="M2038.3,967.2h-65c-1.4,0-4.1-1.4-4.5-2.7l-66.4-144.1h-39.1v142.7c0,1.8-2.3,4.1-5,4.1h-59.6
					c-2.3,0-4.5-2.3-4.5-4.1V753.6h69.1h53.2c15,0,53.6-1.8,53.6-41.8s-42.7-42.3-53.6-42.3h-53.2h-69.1v-61.8
					c0-1.8,2.3-4.1,4.5-4.1h117.7c20.5,0,122.7,0.9,122.7,108.2c0,55.5-30.5,84.6-66.8,97.7c22.7,51.4,47.3,101.4,70,151.8
					C2043.8,964.5,2042,967.2,2038.3,967.2z"/>
			</g>
			<g>
				<path class="st0" d="M2387,967.2h-62.7c-1.4,0-3.6-0.9-4.1-2.7l-71.8-202.8l-70.9,202.8c-0.5,1.8-2.7,2.7-4.5,2.7h-62.3
					c-4.1,0-5.9-2.7-4.5-5.5l137.8-355.5c1.4-3.6,7.7-3.6,9.1,0L2391,961.8C2392.4,964.5,2390.1,967.2,2387,967.2z"/>
			</g>
			<g>
				<path class="st0" d="M2672.8,755.8v57.7c0,1.8-2.3,4.1-5,4.1h-142.7v149.6h-0.5h-45h-19.1c-2.7,0-5-2.3-5-4.1V607.6
					c0-1.8,2.3-4.1,5-4.1h167.8v65.9h-103.2v82.3h142.7C2670.6,751.7,2672.8,753.6,2672.8,755.8z"/>
			</g>
			<g>
				<path class="st0" d="M2733.7,661.7v-54.1c0-1.8,2.3-4.1,5-4.1h208.7c3.2,0,5,2.3,5,4.1v54.1c0,2.3-1.8,4.1-5,4.1h-208.7
					C2736,665.8,2733.7,664,2733.7,661.7z M2877.8,735.4v227.8c0,1.8-2.3,4.1-5.5,4.1h-58.6c-3.2,0-5-2.3-5-4.1V735.4H2877.8z"/>
			</g>
			<g>
				<path class="st0" d="M3096.9,655.8c-10.5,38.2-30,86.8-42.7,107.7l-25.5,3.2c10-26.8,21.8-74.1,26.8-106.8L3096.9,655.8z"/>
			</g>
			<g>
				<path class="st0" d="M3482.2,785.4c0,155.5-122.3,181.8-212.8,181.8h-59.6c-2.7,0-5-2.3-5-4.1V820.4h69.6v80
					c44.1,1.8,137.7-2.7,137.7-115c0-86.4-58.6-119.6-137.7-115.5v80.5h-69.6V607.6c0-1.8,2.3-4.1,5-4.1h59.6
					C3358.1,603.5,3482.2,624,3482.2,785.4z"/>
			</g>
			<g>
				<path class="st0" d="M1713.7,1147v355.5c0,1.8-1.8,4.1-5,4.1h-59.6c-2.7,0-5-2.3-5-4.1v-64.1h-137.7v64.1c0,1.8-1.8,4.1-5,4.1
					h-59.6c-2.7,0-5-2.3-5-4.1v-132.3h69.6v0.5h137.7v-12.3v-67.7V1147c0-1.8,2.3-4.1,5-4.1h59.6
					C1711.8,1142.9,1713.7,1145.2,1713.7,1147z M1436.8,1300.7V1147c0-1.8,2.3-4.1,5-4.1h59.6c3.2,0,5,2.3,5,4.1v143.7v10H1436.8z"
					/>
			</g>
			<g>
				<path class="st0" d="M2059.1,1506.6h-62.7c-1.4,0-3.6-0.9-4.1-2.7l-71.8-202.8l-70.9,202.8c-0.5,1.8-2.7,2.7-4.5,2.7h-62.3
					c-4.1,0-5.9-2.7-4.5-5.5l137.7-355.5c1.4-3.6,7.7-3.6,9.1,0l138.2,355.5C2064.5,1503.9,2062.3,1506.6,2059.1,1506.6z"/>
			</g>
			<g>
				<path class="st0" d="M2324.1,1324.8c57.7,19.5,55.5,75.9,55.5,75.9c0,101.4-103.6,105.9-128.2,105.9h-54.1v-66.4h54.1
					c22.7,0,58.6-6.4,58.6-41.4c0-42.7-58.6-40-58.6-40h-54.6h-69.1V1147c0-1.8,2.3-4.1,5-4.1h118.7c0,0,123.2-2.7,123.2,104.1
					C2374.5,1289.3,2351.8,1313.4,2324.1,1324.8z M2251.3,1208h-54.6v83.2h54.6c0,0,53.6,0,53.6-40
					C2305,1207.5,2251.3,1208,2251.3,1208z"/>
			</g>
			<g>
				<path class="st0" d="M2595.4,1448.4v54.1c0,1.8-1.8,4.1-5,4.1h-143.2c-2.7,0-5-2.3-5-4.1v-54.1c0-2.3,2.3-4.1,5-4.1h37.3v-128.7
					v-110.5v-62.3h69.6v62.3v110.5v128.7h36.4C2593.6,1444.4,2595.4,1446.2,2595.4,1448.4z"/>
			</g>
			<g>
				<path class="st0" d="M2653.1,1201.1V1147c0-1.8,2.3-4.1,5-4.1h208.7c3.2,0,5,2.3,5,4.1v54.1c0,2.3-1.8,4.1-5,4.1h-208.7
					C2655.4,1205.2,2653.1,1203.4,2653.1,1201.1z M2797.2,1274.8v227.8c0,1.8-2.3,4.1-5.5,4.1h-58.6c-3.2,0-5-2.3-5-4.1v-227.8
					H2797.2z"/>
			</g>
			<g>
				<path class="st0" d="M3214.1,1506.6h-62.7c-1.4,0-3.6-0.9-4.1-2.7l-71.8-202.8l-70.9,202.8c-0.5,1.8-2.7,2.7-4.5,2.7h-62.3
					c-4.1,0-5.9-2.7-4.5-5.5l137.7-355.5c1.4-3.6,7.7-3.6,9.1,0l138.2,355.5C3219.5,1503.9,3217.2,1506.6,3214.1,1506.6z"/>
			</g>
			<g>
				<path class="st0" d="M3282.6,1201.1V1147c0-1.8,2.3-4.1,5-4.1h208.7c3.2,0,5,2.3,5,4.1v54.1c0,2.3-1.8,4.1-5,4.1h-208.7
					C3284.9,1205.2,3282.6,1203.4,3282.6,1201.1z M3426.7,1274.8v227.8c0,1.8-2.3,4.1-5.5,4.1h-58.6c-3.2,0-5-2.3-5-4.1v-227.8
					H3426.7z"/>
			</g>
		</g>
		<g>
			<g>
				<path class="st0" d="M911.5,1946.1c-2,0.3-4.1,0.5-6.4,0.5c-2.3,0-3.4-0.7-3.4-2.2c0-1.5,1-2.2,3.1-2.2c2.2,0,3.7-0.4,4.6-1.2
					c1.5-1.4,3-3.6,4.4-6.7c1.5-3.1,2.8-6,4.1-8.7c1.3-2.7,2.7-5.8,4.3-9.4s3.4-7.6,5.4-12.1c2-4.4,4-9.1,6.2-14.1
					c5.7-13.1,9.4-21.9,11.2-26.5c1.8-4.5,2.8-7,3-7.5c0.2-0.5,0.4-0.9,0.6-1.3c0.6-0.9,1.1-1.4,1.5-1.4c0.4,0,0.7,0.1,1,0.2
					c0.3,0.1,0.6,0.3,0.9,0.6c0.7,0.8,1.3,2.1,2,3.7c0.7,1.7,1.6,3.9,2.7,6.7c1.1,2.8,2.4,6,3.9,9.6s3,7.4,4.6,11.5
					c1.6,4.1,3.3,8.2,4.9,12.3c1.7,4.1,3.3,8,4.8,11.9c1.6,3.8,3,7.3,4.2,10.4c3.8,9.2,6.2,14.7,7.3,16.6c1.1,1.8,1.9,3.1,2.7,3.8
					c1.1,1.1,2.7,1.6,4.9,1.6c2.2,0,3.2,0.7,3.2,2.2c0,1.5-1.4,2.2-4.2,2.2c-1.2,0-2.2-0.1-3.1-0.2c-0.9-0.1-1.7-0.2-2.6-0.3
					c-2.6-0.4-4.8-0.5-6.8-0.5l-12.8,1c-2.9,0-4.3-0.8-4.3-2.4c0-1.3,0.8-2,2.4-2l4,0.5c1.7,0,2.8-0.4,3.3-1.1
					c0.5-0.7,0.8-1.6,0.8-2.7c0-2.1-0.9-5.3-2.7-9.7l-5.5-13.8H929c-1.1,2.7-2,5.1-2.9,7.3c-0.9,2.2-1.7,4.3-2.5,6.4
					c-1.2,3.4-1.8,6-1.8,7.9c0,1.9,0.3,3.3,1,4.2c0.7,0.9,2,1.4,3.9,1.4l4-0.3c1.6,0,2.4,0.6,2.4,1.9c0,1.6-1.4,2.4-4.3,2.4l-11-1
					C915.5,1945.6,913.4,1945.8,911.5,1946.1z M963.6,1909.7l-15.8-39.5c-3,7.7-8.5,20.9-16.4,39.5H963.6z"/>
			</g>
			<g>
				<path class="st0" d="M1203,1946.6c-2.9,0-4.3-0.8-4.3-2.4c0-1.3,0.8-1.9,2.4-1.9l3.2,0.3c2.7,0,4.4-1.5,5.4-4.4
					c0.8-2.5,1.1-7,1.1-13.5v-46.8c0-6.5-0.3-10.7-0.9-12.8c-0.6-2-1.4-3.4-2.2-4.1c-0.9-0.7-2-1.1-3.3-1.1l-3.2,0.3
					c-1.6,0-2.4-0.6-2.4-1.9c0-1.6,1.2-2.4,3.6-2.4c2.4,0,4.7,0.2,6.9,0.5s4.5,0.5,6.9,0.5c2.4,0,4.7-0.2,6.9-0.5
					c2.2-0.4,5-0.5,8.4-0.5c3.4,0,7.1,0.5,11,1.7c3.9,1.1,7.2,2.7,9.9,4.7c5.6,4.2,8.4,9.8,8.4,16.7c0,7.7-3.2,14.3-9.5,19.9
					c-2,1.8-4.3,3.3-6.8,4.5l21.5,31.3c2.4,3.6,5.1,5.7,8,6.5c0.8,0.2,1.9,0.4,3.2,0.5c2.3,0.2,3.4,1,3.4,2.2c0,1.3-1.2,1.9-3.6,1.9
					h-12.7c-3,0-5.8-2-8.3-6l-16.7-26.7c-1.5-2.3-2.9-4-4.3-5c-1.4-1-3.5-1.5-6.3-1.5s-5.3,0.1-7.5,0.2v18c0,6.7,0.3,11,0.9,12.9
					c0.6,1.9,1.3,3.2,2.2,4c0.9,0.7,2,1.1,3.4,1.1l3.2-0.3c1.6,0,2.4,0.6,2.4,1.9c0,1.6-1.4,2.4-4.2,2.4c-1.5,0-3-0.1-4.6-0.4
					c-5.3-0.8-9.8-1-13.6-0.4C1207,1946.3,1204.4,1946.6,1203,1946.6z M1221.2,1900.8c2.9,0.3,5.6,0.5,8.3,0.5h4.2
					c4.3,0,7.9-1.5,10.9-4.4c3.4-3.4,5.2-8,5.2-13.9c0-7.1-2.1-12.7-6.4-16.8c-4-3.9-9.2-5.8-15.5-5.8c-2.3,0-3.9,0.3-5,0.9
					c-1.1,0.6-1.6,1.7-1.6,3.2V1900.8z"/>
			</g>
			<g>
				<path class="st0" d="M1568.7,1876c0,1.7-0.6,2.6-1.8,2.6c-1.1,0-1.9-1.1-2.6-3.2c-0.7-2.1-2-4.2-3.9-6.1
					c-1.9-1.9-4.2-3.5-6.8-4.8c-5.5-2.7-11.4-4-17.8-4c-6.3,0-11.8,0.8-16.4,2.5c-4.6,1.7-8.6,4.1-11.9,7.3
					c-6.9,6.8-10.3,15.9-10.3,27.4c0,12.7,3.9,23.2,11.7,31.5c7.7,8.2,17.6,12.3,29.7,12.3c13.4,0,23.8-6.2,31.1-18.5
					c0.5-0.8,1-1.2,1.5-1.3c0.5,0,1,0.5,1.5,1.6c0.5,1.1,0.7,2.3,0.7,3.6c0,2.2-1.9,5.1-5.6,8.6c-3.8,3.5-8.3,6.4-13.7,8.5
					c-5.4,2.2-11.6,3.2-18.7,3.2c-7.1,0-13.9-1.2-20.3-3.5c-6.4-2.3-11.8-5.5-16.3-9.5c-9.4-8.4-14-18.9-14-31.5
					c0-14.2,4.7-25.7,14.2-34.4c9.5-8.8,21.9-13.2,37.3-13.2c11.1,0,20.3,1.5,27.6,4.4c1.4,0.6,2.3,1.2,2.8,1.8
					c0.9,1.2,1.4,3.1,1.6,5.5c0.2,2.4,0.3,4.1,0.3,5.1C1568.6,1874.2,1568.7,1875.5,1568.7,1876z"/>
			</g>
			<g>
				<path class="st0" d="M1783,1946.6c-2.9,0-4.3-0.8-4.3-2.4c0-1.3,0.8-1.9,2.4-1.9l3.2,0.3c2.4,0,4-1.1,5-3.4
					c1-2.6,1.5-7.4,1.5-14.5v-46.8c0-7.3-0.4-11.9-1.2-13.7c-0.8-1.9-1.6-3-2.4-3.5c-0.8-0.5-1.8-0.7-2.9-0.7l-3.2,0.3
					c-1.6,0-2.4-0.6-2.4-1.9c0-1.6,1.2-2.4,3.6-2.4s4.7,0.2,6.9,0.5s4.5,0.5,6.9,0.5c2.4,0,4.6-0.2,6.7-0.5c2.1-0.4,4.4-0.5,6.8-0.5
					c2.4,0,3.6,0.8,3.6,2.4c0,1.3-0.8,1.9-2.4,1.9l-3.2-0.3c-2.4,0-4,1.1-5,3.4c-1,2.6-1.5,7.4-1.5,14.5v15h46.8v-15
					c0-7.3-0.4-11.9-1.2-13.7c-0.8-1.9-1.6-3-2.4-3.5c-0.8-0.5-1.8-0.7-2.9-0.7l-3.2,0.3c-1.6,0-2.4-0.6-2.4-1.9
					c0-1.6,1.2-2.4,3.6-2.4c2.4,0,4.7,0.2,6.9,0.5s4.5,0.5,6.9,0.5c2.4,0,4.6-0.2,6.7-0.5c2.1-0.4,4.4-0.5,6.8-0.5
					c2.4,0,3.6,0.8,3.6,2.4c0,1.3-0.8,1.9-2.4,1.9l-3.2-0.3c-2.4,0-4,1.1-5,3.4c-1,2.6-1.5,7.4-1.5,14.5v46.8
					c0,7.2,0.4,11.7,1.2,13.6c0.8,1.9,1.6,3.1,2.4,3.6c0.8,0.5,1.8,0.7,2.9,0.7l3.2-0.3c1.6,0,2.4,0.6,2.4,1.9
					c0,1.6-1.4,2.4-4.2,2.4c-1.5,0-3-0.1-4.6-0.4c-2.5-0.4-5.2-0.6-8.1-0.6s-5.5,0.2-7.7,0.5c-2.3,0.3-4.1,0.5-5.5,0.5
					c-2.9,0-4.3-0.8-4.3-2.4c0-1.3,0.8-1.9,2.4-1.9l3.2,0.3c2.4,0,4-1.1,5-3.4c1-2.6,1.5-7.4,1.5-14.5v-25.4h-46.8v25.4
					c0,7.2,0.4,11.7,1.2,13.6c0.8,1.9,1.6,3.1,2.4,3.6c0.8,0.5,1.8,0.7,2.9,0.7l3.2-0.3c1.6,0,2.4,0.6,2.4,1.9
					c0,1.6-1.4,2.4-4.2,2.4c-1.5,0-3-0.1-4.6-0.4c-5.3-0.8-9.8-1-13.6-0.4C1787,1946.3,1784.4,1946.6,1783,1946.6z"/>
			</g>
			<g>
				<path class="st0" d="M2082.3,1946.6c-2.9,0-4.3-0.8-4.3-2.4c0-1.3,0.8-1.9,2.4-1.9l3.2,0.3c2.4,0,4-1.1,5-3.4
					c1-2.6,1.5-7.4,1.5-14.5l-0.3-46.8c0-7.3-0.4-11.9-1.2-13.7c-0.8-1.9-1.6-3-2.4-3.5c-0.8-0.5-1.8-0.7-2.9-0.7l-3.2,0.3
					c-1.6,0-2.4-0.6-2.4-1.9c0-1.6,1.2-2.4,3.6-2.4c2.4,0,4.7,0.2,6.9,0.5c2.2,0.4,4.5,0.5,6.9,0.5c2.4,0,4.7-0.2,6.8-0.5
					c2.2-0.4,4.4-0.5,6.9-0.5c2.4,0,3.6,0.8,3.6,2.4c0,1.3-0.8,1.9-2.4,1.9l-3.2-0.3c-2.4,0-4,1.1-5,3.4c-1,2.6-1.5,7.4-1.5,14.5
					l0.3,46.8c0,7.1,0.4,11.6,1.3,13.6c0.9,1.9,1.7,3.2,2.6,3.6c0.9,0.5,1.9,0.7,3,0.7l3.2-0.3c1.6,0,2.4,0.6,2.4,1.9
					c0,1.6-1.4,2.4-4.2,2.4c-1.5,0-3-0.1-4.6-0.4c-5.5-0.9-10.2-1-14.1-0.5C2086.4,1946.3,2083.7,1946.6,2082.3,1946.6z"/>
			</g>
			<g>
				<path class="st0" d="M2342.3,1946.6c-2.9,0-4.3-0.8-4.3-2.4c0-1.3,0.8-1.9,2.4-1.9l3.2,0.3c2.7,0,4.4-1.5,5.3-4.4
					c0.8-2.5,1.2-7,1.2-13.5v-61.9h-1.8c-7.7,0-13.9,0.8-18.5,2.4c-3.2,1.1-5.3,3.1-6.5,5.9c-0.8,2-1.7,3-2.7,3
					c-1.3,0-1.9-0.8-1.9-2.3c0-0.4,0.1-0.9,0.3-1.5c0.2-0.6,0.4-1.3,0.7-2.1c0.7-2.1,1.1-4.3,1.3-6.6c0.1-2.3,0.4-3.8,0.8-4.6
					c0.4-0.8,0.9-1.2,1.6-1.2s1.3,0.1,1.8,0.2c0.5,0.1,1.3,0.2,2.3,0.4c2.6,0.4,6,0.5,10,0.5h42c3.3,0,5.6-0.2,7.1-0.5
					c1.5-0.4,2.6-0.5,3.2-0.5c1.5,0,2.2,0.7,2.2,2.1c0,0.7-0.1,1.5-0.4,2.5c-0.7,2.2-1.1,4-1.3,5.6c-0.2,1.6-0.4,2.9-0.6,3.8
					c-0.2,1-0.4,1.8-0.6,2.4c-0.4,1-0.9,1.5-1.6,1.5s-1.2-0.3-1.4-0.8c-0.2-0.5-0.4-1.5-0.6-2.9c-0.2-1.5-0.6-2.7-1.1-3.6
					c-0.5-0.9-1.2-1.7-2.1-2.2c-1.5-1-4.1-1.5-7.6-1.5h-14.2v61.9c0,6.7,0.3,11,0.9,12.9c0.6,1.9,1.3,3.2,2.2,4
					c0.9,0.7,2,1.1,3.4,1.1l3.2-0.3c1.6,0,2.4,0.6,2.4,1.9c0,1.6-1.4,2.4-4.2,2.4c-1.5,0-3-0.1-4.6-0.4c-5.3-0.8-9.8-1-13.6-0.4
					C2346.3,1946.3,2343.7,1946.6,2342.3,1946.6z"/>
			</g>
			<g>
				<path class="st0" d="M2601.2,1946.6c-2.4,0-3.6-0.8-3.6-2.4c0-1.3,0.8-1.9,2.4-1.9l3.2,0.3c2.5,0,4.2-1.1,5-3.2
					c1-2.4,1.5-7.3,1.5-14.6v-47c0-7.2-0.3-11.8-1-13.7c-0.7-1.9-1.4-3.1-2.3-3.5c-0.8-0.5-1.9-0.7-3.2-0.7l-3.2,0.3
					c-1.6,0-2.4-0.6-2.4-1.9c0-1.6,1.2-2.4,3.5-2.4c2.4,0,4.3,0.1,5.8,0.2c1.5,0.1,3.1,0.2,4.6,0.4c4.1,0.4,7.3,0.5,9.7,0.5
					c2.4,0,4.9-0.1,7.5-0.2c2.7-0.1,5.6-0.2,8.9-0.4c8.6-0.4,14.6-0.5,17.9-0.5c3.3,0,5.2,0.2,5.6,0.6c0.4,0.4,0.6,0.9,0.6,1.6
					c0,0.7,0,1.3,0,2c0,0.6-0.1,1.3-0.1,2.1c0,1-0.2,2.5-0.4,4.5c-0.2,2-0.5,3.4-0.8,4c-0.3,0.7-0.8,1-1.3,1s-1-0.1-1.2-0.4
					c-0.2-0.3-0.5-1-0.9-2c-0.4-1-1-2-2-3c-0.9-0.9-2.4-1.7-4.5-2.4c-4-1.2-11.3-1.8-22.1-1.8h-5.9c-1.1,0-1.7,0.2-2,0.5
					c-0.3,0.3-0.4,1-0.4,2.1v27.9c5.3,0.6,9.6,0.9,13.1,0.9c3.5,0,5.9,0,7.4-0.1c1.5,0,2.7-0.2,3.7-0.4c1.7-0.3,3-1.1,3.7-2.3
					c1.5-2.3,2.7-3.5,3.6-3.5c1.2,0,1.8,0.6,1.8,1.9l-2.3,9.4l0.3,5c0,3.2-0.8,4.8-2.3,4.8c-1.3,0-1.9-0.8-1.9-2.6
					c0-1.7-0.1-3-0.3-3.8c-0.2-0.8-0.8-1.5-1.7-2c-1.4-0.7-4.9-1.1-10.3-1.1c-5.5,0-10.4,0.2-14.8,0.7v15.7c0,9.8,0.2,17.8,0.7,24.2
					c3.6,0.8,7.5,1.2,11.7,1.2c4.2,0,7.8-0.1,10.8-0.3c3-0.2,5.6-0.7,7.7-1.3c4.3-1.3,7.4-3.7,9.5-7.4c0.9-1.6,1.8-2.4,2.7-2.4
					s1.3,0.6,1.3,1.9c0,0.5-0.2,1.2-0.5,2.1c-0.4,1.1-0.9,2.9-1.5,5.1c-0.7,2.3-1.2,3.9-1.5,4.9c-0.4,1-0.8,1.8-1.2,2.3
					c-0.7,0.9-2,1.3-3.9,1.3s-3.8,0-5.6,0c-1.8,0-3.7-0.1-5.7-0.1c-2.3-0.1-5.9-0.3-10.7-0.5c-12-0.6-19.1-0.8-21.1-0.6
					c-2.1,0.2-3.6,0.3-4.7,0.4c-1.1,0.1-2.1,0.2-3.1,0.3C2603.8,1946.5,2602.6,1946.6,2601.2,1946.6z"/>
			</g>
			<g>
				<path class="st0" d="M2957.9,1876c0,1.7-0.6,2.6-1.8,2.6c-1.1,0-1.9-1.1-2.6-3.2c-0.7-2.1-2-4.2-3.9-6.1
					c-1.9-1.9-4.2-3.5-6.8-4.8c-5.5-2.7-11.5-4-17.8-4s-11.8,0.8-16.4,2.5c-4.6,1.7-8.6,4.1-11.9,7.3c-6.9,6.8-10.3,15.9-10.3,27.4
					c0,12.7,3.9,23.2,11.7,31.5c7.7,8.2,17.6,12.3,29.7,12.3c13.4,0,23.8-6.2,31.1-18.5c0.5-0.8,1-1.2,1.5-1.3c0.5,0,1,0.5,1.5,1.6
					c0.5,1.1,0.7,2.3,0.7,3.6c0,2.2-1.9,5.1-5.6,8.6c-3.8,3.5-8.3,6.4-13.7,8.5c-5.4,2.2-11.6,3.2-18.7,3.2
					c-7.1,0-13.9-1.2-20.3-3.5c-6.4-2.3-11.8-5.5-16.3-9.5c-9.4-8.4-14-18.9-14-31.5c0-14.2,4.7-25.7,14.2-34.4
					c9.4-8.8,21.9-13.2,37.3-13.2c11.1,0,20.3,1.5,27.6,4.4c1.4,0.6,2.3,1.2,2.8,1.8c0.9,1.2,1.4,3.1,1.6,5.5
					c0.2,2.4,0.3,4.1,0.3,5.1C2957.8,1874.2,2957.9,1875.5,2957.9,1876z"/>
			</g>
			<g>
				<path class="st0" d="M3190.6,1946.6c-2.9,0-4.3-0.8-4.3-2.4c0-1.3,0.8-1.9,2.4-1.9l3.2,0.3c2.6,0,4.4-1.5,5.3-4.4
					c0.8-2.5,1.2-7,1.2-13.5v-61.9h-1.8c-7.7,0-13.9,0.8-18.5,2.4c-3.2,1.1-5.3,3.1-6.5,5.9c-0.8,2-1.7,3-2.7,3
					c-1.3,0-1.9-0.8-1.9-2.3c0-0.4,0.1-0.9,0.3-1.5c0.2-0.6,0.4-1.3,0.7-2.1c0.7-2.1,1.1-4.3,1.3-6.6c0.1-2.3,0.4-3.8,0.8-4.6
					c0.4-0.8,0.9-1.2,1.6-1.2s1.3,0.1,1.8,0.2c0.5,0.1,1.3,0.2,2.3,0.4c2.7,0.4,6,0.5,10,0.5h42c3.3,0,5.6-0.2,7.1-0.5
					c1.5-0.4,2.6-0.5,3.2-0.5c1.5,0,2.2,0.7,2.2,2.1c0,0.7-0.1,1.5-0.4,2.5c-0.7,2.2-1.1,4-1.3,5.6c-0.2,1.6-0.4,2.9-0.6,3.8
					c-0.2,1-0.4,1.8-0.6,2.4c-0.4,1-0.9,1.5-1.6,1.5s-1.2-0.3-1.4-0.8c-0.2-0.5-0.4-1.5-0.6-2.9c-0.2-1.5-0.6-2.7-1.1-3.6
					c-0.5-0.9-1.2-1.7-2.1-2.2c-1.5-1-4.1-1.5-7.6-1.5h-14.2v61.9c0,6.7,0.3,11,0.9,12.9c0.6,1.9,1.3,3.2,2.2,4
					c0.9,0.7,2,1.1,3.4,1.1l3.2-0.3c1.6,0,2.4,0.6,2.4,1.9c0,1.6-1.4,2.4-4.2,2.4c-1.5,0-3-0.1-4.6-0.4c-5.3-0.8-9.8-1-13.6-0.4
					C3194.6,1946.3,3192,1946.6,3190.6,1946.6z"/>
			</g>
			<g>
				<path class="st0" d="M3477.3,1860.1l-3.2-0.3c-2.7,0-4.5,1.5-5.5,4.4c-0.8,2.6-1.3,7.1-1.3,13.5v32.7c0,6.1,0.4,10.5,1.3,13.2
					c0.9,2.7,2.1,5.1,3.7,7.3c1.6,2.2,3.5,4.1,5.7,5.6c4.4,3.1,9.3,4.6,14.8,4.6c5.5,0,10-0.6,13.6-2c3.6-1.3,6.4-3.3,8.5-5.9
					c3.9-4.8,5.9-12.5,5.9-23.3l-0.1-32.4c0-6.5-0.3-10.7-0.9-12.8c-0.6-2-1.4-3.4-2.2-4.1c-0.9-0.7-2-1.1-3.3-1.1l-3.2,0.3
					c-1.6,0-2.4-0.6-2.4-1.9c0-1.6,1.2-2.4,3.6-2.4s4.5,0.2,6.4,0.5c1.8,0.4,3.7,0.5,5.7,0.5l10.9-1.1c2.8,0,4.2,0.8,4.2,2.4
					c0,1.3-0.8,1.9-2.4,1.9l-3.2-0.3c-2.7,0-4.5,1.5-5.4,4.4c-0.8,2.6-1.1,7.1-1.1,13.5l-0.1,35.8c0,9.9-3.1,17.9-9.4,24.2
					c-6.3,6.3-14.7,9.5-25.2,9.5c-11.4,0-20.5-3.2-27.1-9.5c-6.8-6.5-10.1-15.6-10.1-27.2v-32.7c0-6.4-0.3-10.6-1-12.7
					c-0.7-2.1-1.4-3.4-2.3-4.2c-0.9-0.7-2-1.1-3.4-1.1l-3.2,0.3c-1.6,0-2.4-0.6-2.4-1.9c0-1.6,1.2-2.4,3.7-2.4
					c2.4,0,4.8,0.2,7.2,0.5c2.3,0.4,4.8,0.5,7.4,0.5c2.6,0,5.1-0.2,7.5-0.5c2.4-0.4,4.8-0.5,7.2-0.5c2.4,0,3.6,0.8,3.6,2.4
					C3479.6,1859.5,3478.8,1860.1,3477.3,1860.1z"/>
			</g>
			<g>
				<path class="st0" d="M3747.7,1946.6c-2.9,0-4.3-0.8-4.3-2.4c0-1.3,0.8-1.9,2.4-1.9l3.2,0.3c2.7,0,4.4-1.5,5.4-4.4
					c0.8-2.5,1.1-7,1.1-13.5v-46.8c0-6.5-0.3-10.7-0.9-12.8c-0.6-2-1.4-3.4-2.2-4.1c-0.9-0.7-2-1.1-3.3-1.1l-3.2,0.3
					c-1.6,0-2.4-0.6-2.4-1.9c0-1.6,1.2-2.4,3.6-2.4s4.7,0.2,6.9,0.5c2.2,0.4,4.5,0.5,6.9,0.5c2.4,0,4.7-0.2,6.9-0.5
					c2.2-0.4,5-0.5,8.4-0.5c3.4,0,7.1,0.5,11,1.7c3.9,1.1,7.2,2.7,9.9,4.7c5.6,4.2,8.4,9.8,8.4,16.7c0,7.7-3.2,14.3-9.5,19.9
					c-2,1.8-4.3,3.3-6.8,4.5l21.5,31.3c2.4,3.6,5.1,5.7,8,6.5c0.8,0.2,1.9,0.4,3.2,0.5c2.3,0.2,3.4,1,3.4,2.2c0,1.3-1.2,1.9-3.6,1.9
					h-12.7c-3,0-5.8-2-8.3-6l-16.7-26.7c-1.5-2.3-2.9-4-4.3-5c-1.4-1-3.5-1.5-6.3-1.5s-5.3,0.1-7.5,0.2v18c0,6.7,0.3,11,0.9,12.9
					c0.6,1.9,1.3,3.2,2.2,4c0.9,0.7,2,1.1,3.4,1.1l3.2-0.3c1.6,0,2.4,0.6,2.4,1.9c0,1.6-1.4,2.4-4.2,2.4c-1.5,0-3-0.1-4.6-0.4
					c-5.3-0.8-9.8-1-13.6-0.4C3751.7,1946.3,3749.1,1946.6,3747.7,1946.6z M3765.9,1900.8c2.9,0.3,5.6,0.5,8.3,0.5h4.2
					c4.3,0,7.9-1.5,10.9-4.4c3.4-3.4,5.2-8,5.2-13.9c0-7.1-2.1-12.7-6.4-16.8c-4-3.9-9.2-5.8-15.5-5.8c-2.3,0-3.9,0.3-5,0.9
					c-1.1,0.6-1.6,1.7-1.6,3.2V1900.8z"/>
			</g>
			<g>
				<path class="st0" d="M4030.7,1946.6c-2.4,0-3.6-0.8-3.6-2.4c0-1.3,0.8-1.9,2.4-1.9l3.2,0.3c2.5,0,4.2-1.1,5-3.2
					c1-2.4,1.5-7.3,1.5-14.6v-47c0-7.2-0.3-11.8-1-13.7c-0.7-1.9-1.4-3.1-2.3-3.5c-0.8-0.5-1.9-0.7-3.2-0.7l-3.2,0.3
					c-1.6,0-2.4-0.6-2.4-1.9c0-1.6,1.2-2.4,3.5-2.4c2.4,0,4.3,0.1,5.8,0.2c1.5,0.1,3.1,0.2,4.6,0.4c4.1,0.4,7.3,0.5,9.7,0.5
					c2.4,0,4.9-0.1,7.5-0.2c2.7-0.1,5.6-0.2,8.9-0.4c8.6-0.4,14.6-0.5,17.9-0.5c3.3,0,5.2,0.2,5.6,0.6c0.4,0.4,0.6,0.9,0.6,1.6
					c0,0.7,0,1.3,0,2c0,0.6-0.1,1.3-0.1,2.1c0,1-0.2,2.5-0.4,4.5c-0.2,2-0.5,3.4-0.8,4c-0.3,0.7-0.8,1-1.3,1s-1-0.1-1.2-0.4
					c-0.2-0.3-0.5-1-0.9-2c-0.4-1-1-2-2-3c-0.9-0.9-2.4-1.7-4.5-2.4c-4-1.2-11.3-1.8-22.1-1.8h-5.9c-1.1,0-1.7,0.2-2,0.5
					c-0.3,0.3-0.4,1-0.4,2.1v27.9c5.3,0.6,9.6,0.9,13.1,0.9c3.5,0,5.9,0,7.4-0.1c1.5,0,2.7-0.2,3.7-0.4c1.7-0.3,3-1.1,3.7-2.3
					c1.5-2.3,2.7-3.5,3.6-3.5c1.2,0,1.8,0.6,1.8,1.9l-2.3,9.4l0.3,5c0,3.2-0.8,4.8-2.3,4.8c-1.3,0-1.9-0.8-1.9-2.6
					c0-1.7-0.1-3-0.3-3.8c-0.2-0.8-0.8-1.5-1.7-2c-1.4-0.7-4.9-1.1-10.3-1.1c-5.5,0-10.4,0.2-14.8,0.7v15.7c0,9.8,0.2,17.8,0.7,24.2
					c3.6,0.8,7.5,1.2,11.7,1.2c4.2,0,7.8-0.1,10.8-0.3c3-0.2,5.6-0.7,7.7-1.3c4.3-1.3,7.4-3.7,9.5-7.4c0.9-1.6,1.8-2.4,2.7-2.4
					c0.9,0,1.3,0.6,1.3,1.9c0,0.5-0.2,1.2-0.5,2.1c-0.4,1.1-0.9,2.9-1.5,5.1c-0.7,2.3-1.2,3.9-1.5,4.9c-0.4,1-0.8,1.8-1.2,2.3
					c-0.7,0.9-2,1.3-3.9,1.3s-3.8,0-5.6,0c-1.8,0-3.7-0.1-5.7-0.1c-2.3-0.1-5.9-0.3-10.7-0.5c-12-0.6-19.1-0.8-21.1-0.6
					c-2.1,0.2-3.6,0.3-4.7,0.4c-1.1,0.1-2.1,0.2-3.1,0.3C4033.2,1946.5,4032,1946.6,4030.7,1946.6z"/>
			</g>
		</g>
	</g>
</g>
</svg>
