<?xml version="1.0" encoding="UTF-8"?>
<svg id="Layer_1" data-name="Layer 1" xmlns="http://www.w3.org/2000/svg" viewBox="0 0 519.2 443.99">
  <path d="m186.04,315.39c11.52,1.23,24.74,2.74,37.99,4,3.08.29,6.34.23,9.33-.47,24.54-5.69,49.14-10.81,74.56-9.21,7.53.47,14.93,1.75,21.14,6.56,4.94,3.83,4.8,7.57-1.14,9.35-10.64,3.18-21.61,5.23-32.4,7.91-10.15,2.52-20.26,5.21-30.35,7.93-1.57.42-3.39,1.1-4.38,2.26-1.39,1.64-2.98,3.9-2.87,5.8.09,1.55,2.26,3.56,3.98,4.35,14.53,6.7,29.63,6.8,44.95,3.32,23.53-5.35,44.46-16.81,64.97-28.82,15.78-9.24,30.68-20,46.01-30.02,7.26-4.75,14.53-9.69,23.54-10.22,3.92-.23,8.07-.19,11.8.86,5.91,1.66,7.51,6.68,3.29,11.11-7,7.33-14.1,14.78-22.18,20.81-35.89,26.81-72.06,53.25-108.33,79.56-10.07,7.3-21.9,10.26-34.25,11.1-19.16,1.3-37.76-2.81-56.54-5.43-11.81-1.65-23.82-2.55-35.73-2.51-12.02.05-21.55,6.12-28.67,15.82-.59.81-1.35,1.56-1.69,2.47-9,23.88-30.22,24.67-50.69,19.48-19.68-4.99-36.63-14.95-49.42-31.08-2.45-3.09-4.46-6.66-6.07-10.28-3.78-8.46-3.36-16.24,3.65-23.34,11.23-11.37,21.85-23.35,33.14-34.66,15.57-15.59,35.23-22.19,56.67-24.29,9.28-.91,18.59-1.49,29.71-2.37Z" style="stroke-width: 0px;"/>
  <path d="m138.1,181.49c-6.79-7.13-13.31-13.72-19.51-20.6-3.35-3.72-3.31-8.28-1.25-12.66,10.12-21.53,20.24-43.06,30.55-64.51,2.53-5.27,7.99-5.94,12.94-5.89,10.64.11,21.29.8,31.92,1.38,5.9.32,11.79.91,18.33,1.43-6.26,5.4-12.19,9.95-17.44,15.19-4.69,4.67-9.15,9.75-12.79,15.26-6.37,9.62-6.26,19.38-.63,26.56,5.76,7.35,18.23,11.56,27.62,8.16,5.82-2.1,11.24-5.65,16.36-9.23,5.85-4.1,11.12-9.01,16.73-13.46,4.52-3.59,9.62-4.62,15.45-4.06,7.94.76,15.96.64,23.94,1.07,1.89.1,3.98.51,5.56,1.46,22.12,13.3,44.17,26.69,66.21,40.12,5.64,3.44,6.81,8.72,3.51,14.6-3.02,5.38-7.5,6.65-13.53,3.66-22.06-10.95-44.09-21.96-66.13-32.94-1.04-.52-2.09-1.04-3.15-1.52-5.18-2.34-8.87-1.53-10.68,2.35-1.82,3.9-.15,7.19,5.09,9.75,25.85,12.66,51.73,25.27,77.58,37.94,6.6,3.24,8.37,8.49,5.13,14.76-3.06,5.92-8.14,7.37-14.71,4.1-26.52-13.19-53.02-26.4-79.53-39.61-1.49-.74-2.98-1.48-4.48-2.2-4.92-2.35-8.61-1.58-10.27,2.12-1.59,3.56.01,6.66,4.68,9.02,17.24,8.69,34.49,17.36,51.72,26.07,6.38,3.23,12.76,6.48,19.08,9.82,5.17,2.73,6.57,7.57,3.99,13.13-2.63,5.67-7.8,8.07-13.03,5.64-6.79-3.16-13.49-6.52-20.07-10.09-1.25-.68-2.42-2.62-2.55-4.08-1.49-16.42-13.04-26.49-29.59-25.81-1.7.07-4.31-.42-5.02-1.57-6.05-9.75-14.8-14.01-26.05-13.58-5.63-11.45-14.46-17.14-27.4-15.95-1.25.12-3.04-.97-3.92-2.05-11.72-14.27-29.32-14.49-41.11-.36-4.27,5.11-8.43,10.31-13.54,16.57Z" style="stroke-width: 0px;"/>
  <path d="m463.72,0c1.37,1.8,3.38,3.62,4.39,5.89,8.95,20.22,17.71,40.52,26.54,60.79,7.7,17.68,15.43,35.35,23.12,53.04,2.5,5.74,1.98,7.21-3.59,9.64-25.13,10.99-50.28,21.95-75.43,32.9-5.08,2.21-6.82,1.57-8.98-3.38-16.71-38.24-33.39-76.48-50.04-114.74-2.34-5.38-1.68-7.12,3.48-9.38,25.29-11.05,50.59-22.06,75.9-33.08,1.06-.46,2.16-.79,4.61-1.68Zm-12.23,139.86c7.33.08,13.13-5.46,13.28-12.67.15-7.41-5.77-13.52-13.08-13.51-7.01.01-13.04,6.03-13.11,13.08-.07,7.16,5.71,13.02,12.91,13.1Z" style="stroke-width: 0px;"/>
  <path d="m55.66.01c2.5.93,3.77,1.33,4.97,1.86,24.84,10.84,49.67,21.68,74.49,32.54,6.22,2.72,6.83,4.17,4.19,10.24-16.55,37.94-33.12,75.87-49.71,113.8-2.36,5.39-3.95,6.06-9.18,3.78-25.15-10.94-50.3-21.91-75.43-32.9-5.41-2.36-6.04-3.91-3.73-9.22C17.93,81.86,34.59,43.6,51.38,5.4c.93-2.11,2.95-3.75,4.28-5.39Zm24.99,126.79c-.03-7.01-6.08-13.08-13.07-13.12-7.31-.04-13.24,6.05-13.12,13.47.12,7.22,5.89,12.77,13.23,12.7,7.22-.06,13-5.88,12.96-13.05Z" style="stroke-width: 0px;"/>
  <path d="m371.96,168.1c-1.45-10.87-8.26-16.62-16.68-21.6-22.78-13.46-45.27-27.44-67.97-41.03-2.43-1.45-5.55-2.4-8.36-2.43-8.15-.1-16.32.41-24.48.62-10.13.26-18.62,4.48-26.28,10.76-6.05,4.96-12.02,10.03-18.27,14.73-4.16,3.13-8.91,4.39-14.1,2.2-4.99-2.1-6.54-5.06-4.06-9.81,1.98-3.79,4.35-7.61,7.36-10.59,27.89-27.62,60.87-45.48,100.05-50.89,10.3-1.42,20.13,1.25,29.77,4.83,3.83,1.42,7.99,1.9,11.91,3.13,5.98,1.88,12.4,3.12,17.69,6.23,22.81,13.44,39.11,51.18,34.33,77.31-.97,5.32-3.45,8.86-8.2,10.99-4.05,1.82-8.15,3.55-12.7,5.52Z" style="stroke-width: 0px;"/>
  <path d="m239.33,210.15c-1.13,2.51-1.83,5.34-3.46,7.46-5.78,7.49-11.8,14.81-17.89,22.06-4.73,5.64-11.99,6.43-17.28,2.14-5.18-4.2-5.91-11.68-1.4-17.37,5.99-7.55,12.08-15.02,18.33-22.35,3.74-4.38,8.5-5.39,13.49-3.44,4.71,1.83,7.56,6.06,8.21,11.5Z" style="stroke-width: 0px;"/>
  <path d="m243.26,256.32c-4.9-.62-8.41-2.51-10.77-6.35-2.46-4.02-2.9-8.49-.11-12.23,5.55-7.46,11.38-14.73,17.58-21.65,3.94-4.39,10.8-4.28,15.48-.64,4.73,3.68,6.4,10.68,2.78,15.63-5.37,7.37-11.24,14.42-17.32,21.21-1.8,2.01-5.05,2.72-7.64,4.03Z" style="stroke-width: 0px;"/>
  <path d="m210.85,193.73c-.51,1.08-1.24,3.7-2.78,5.69-5.5,7.08-11.21,13.99-16.96,20.87-4.31,5.16-10.68,6.02-15.42,2.3-4.82-3.79-5.42-10.05-1.16-15.46,5.76-7.3,11.65-14.49,17.64-21.59,3.21-3.8,7.38-4.94,12.11-3.04,4.32,1.74,6.36,5.09,6.55,11.24Z" style="stroke-width: 0px;"/>
  <path d="m158.73,206.97c-2.83-1.99-6.82-3.4-8.17-6.12-1.46-2.94-1.84-7.97-.23-10.55,4.1-6.56,9.35-12.46,14.56-18.25,3.49-3.88,9.61-3.88,13.64-.72,4.18,3.27,5.66,9.49,2.49,13.83-4.59,6.29-9.63,12.28-14.84,18.07-1.5,1.67-4.26,2.2-7.45,3.75Z" style="stroke-width: 0px;"/>
</svg>